<svg width="19" height="20" viewBox="0 0 19 20" fill="none" xmlns="http://www.w3.org/2000/svg">
<path d="M1.27901 8.99999V11.6762H0.374458C0.168689 11.6762 0 11.5057 0 11.2977V9.37854C0 9.17053 0.168689 8.99999 0.374458 8.99999H1.27901Z" fill="#FF903F"/>
<path d="M14.3214 0H5.23675C3.60284 0 2.27905 1.39873 2.27905 3.12513V12.0754C2.27905 16.4519 5.63709 20 9.77905 20C13.921 20 17.2791 16.4519 17.2791 12.0754V3.12513C17.2791 1.39873 15.9553 0 14.3214 0ZM8.01104 15.7814C8.01104 15.9877 7.85278 16.1554 7.65754 16.1554C7.4623 16.1554 7.30403 15.9877 7.30403 15.7814V12.7896C7.30403 12.5834 7.4623 12.4161 7.65754 12.4161C7.85278 12.4161 8.01104 12.5834 8.01104 12.7896V15.7814ZM10.1326 16.9035C10.1326 17.1098 9.97429 17.277 9.77905 17.277C9.58381 17.277 9.42555 17.1098 9.42555 16.9035V11.6681C9.42555 11.4618 9.58381 11.2945 9.77905 11.2945C9.97429 11.2945 10.1326 11.4618 10.1326 11.6681V16.9035ZM12.2541 15.7814C12.2541 15.9877 12.0958 16.1554 11.9006 16.1554C11.7053 16.1554 11.5471 15.9877 11.5471 15.7814V12.7896C11.5471 12.5834 11.7053 12.4161 11.9006 12.4161C12.0958 12.4161 12.2541 12.5834 12.2541 12.7896V15.7814ZM14.9702 8.26214C14.9702 8.84559 14.5205 9.32069 13.9688 9.32069H5.67801C5.12631 9.32069 4.67617 8.84663 4.67617 8.26214V4.18994C4.67617 3.60648 5.12532 3.13138 5.67801 3.13138H13.9688C14.5205 3.13138 14.9702 3.60544 14.9702 4.18994V8.26214Z" fill="#FF903F"/>
<path d="M19 9.42451V11.5755C19 11.8088 18.8676 12 18.7066 12H18V9H18.7066C18.8676 9 19 9.19124 19 9.42451Z" fill="#FF903F"/>
</svg>
