<svg width="12" height="19" viewBox="0 0 12 19" fill="none" xmlns="http://www.w3.org/2000/svg">
<path d="M5.4998 16C6.37914 16 7 16.6353 7 17.4998C7 18.3647 6.37914 19 5.4998 19C4.62045 19 4 18.3647 4 17.4998C4 16.6353 4.62086 16 5.4998 16Z" fill="#FF903F"/>
<path d="M5.83859 0.5C3.27768 0.5 1.27766 1.83485 0.404991 3.84836C-0.016744 4.8221 0.672977 5.9261 1.69682 5.9261C2.38998 5.9261 3.21241 5.39656 3.54911 4.76372C4.00434 3.90675 4.76836 3.36194 5.71275 3.36194C6.92685 3.36194 7.8472 4.25708 7.8472 5.41497C7.8472 6.46372 7.03121 7.05345 6.19418 7.64317C4.81302 8.6259 4.10183 9.74022 4.10183 12.0556C4.10183 12.1503 4.11042 12.2442 4.12846 12.3372C4.14606 12.4301 4.17226 12.5204 4.20705 12.608C4.24183 12.696 4.28435 12.7791 4.33503 12.8577C4.38528 12.9368 4.44282 13.01 4.50724 13.0769C4.57123 13.1438 4.64124 13.2036 4.71682 13.2566C4.79241 13.3091 4.87186 13.3536 4.95604 13.39C5.03978 13.4263 5.12653 13.4537 5.21543 13.4722C5.30476 13.4906 5.39452 13.5 5.48557 13.5H5.61054C5.70159 13.5 5.79135 13.4906 5.88067 13.4722C5.96957 13.4537 6.05632 13.4263 6.14007 13.39C6.22425 13.3536 6.3037 13.3091 6.37928 13.2566C6.45487 13.2036 6.52487 13.1438 6.58886 13.0769C6.65328 13.01 6.71083 12.9368 6.76108 12.8582C6.81175 12.7791 6.85427 12.696 6.88906 12.608C6.92384 12.5204 6.95004 12.4301 6.96765 12.3372C6.98526 12.2442 6.99428 12.1503 6.99428 12.0556H6.98955C6.98955 10.4391 7.59639 9.76178 8.72588 9.08492C10.1908 8.18888 11.2791 7.07501 11.2791 5.15267C11.2791 2.44434 8.93546 0.5 5.83859 0.5Z" fill="#FF903F"/>
</svg>
