<svg width="20" height="20" viewBox="0 0 20 20" fill="none" xmlns="http://www.w3.org/2000/svg">
<path d="M12.2564 4.80252C12.0732 4.9894 11.9706 5.24065 11.9706 5.50234C11.9706 5.76402 12.0732 6.01527 12.2564 6.20215L13.856 7.80174C14.0428 7.98492 14.2941 8.08752 14.5558 8.08752C14.8175 8.08752 15.0687 7.98492 15.2556 7.80174L19.0246 4.03272C19.5273 5.14362 19.6795 6.38134 19.4609 7.58094C19.2424 8.78054 18.6634 9.88504 17.8012 10.7472C16.939 11.6095 15.8345 12.1884 14.6349 12.407C13.4353 12.6256 12.1976 12.4734 11.0867 11.9706L4.17848 18.8788C3.78076 19.2766 3.24133 19.5 2.67887 19.5C2.11641 19.5 1.57698 19.2766 1.17926 18.8788C0.781543 18.4811 0.558105 17.9417 0.558105 17.3792C0.558105 16.8168 0.781543 16.2773 1.17926 15.8796L8.08746 8.97143C7.58475 7.86053 7.43255 6.62281 7.65112 5.42321C7.86968 4.22361 8.44865 3.11911 9.31086 2.2569C10.1731 1.3947 11.2776 0.815728 12.4772 0.597159C13.6768 0.378589 14.9145 0.530799 16.0254 1.0335L12.2664 4.79252L12.2564 4.80252Z" fill="#FF903F"/>
</svg>
