<svg width="22" height="22" viewBox="0 0 22 22" fill="none" xmlns="http://www.w3.org/2000/svg">
<path d="M19.7094 19.25V16.8055C19.7094 15.5089 19.2506 14.2654 18.4341 13.3486C17.6175 12.4317 16.51 11.9166 15.3552 11.9166H6.64689C5.49209 11.9166 4.38459 12.4317 3.56803 13.3486C2.75147 14.2654 2.29272 15.5089 2.29272 16.8055V19.25" stroke="white" stroke-width="2" stroke-linecap="round" stroke-linejoin="round"/>
<path d="M11 10.0833C13.2782 10.0833 15.125 8.2365 15.125 5.95833C15.125 3.68015 13.2782 1.83333 11 1.83333C8.72183 1.83333 6.875 3.68015 6.875 5.95833C6.875 8.2365 8.72183 10.0833 11 10.0833Z" stroke="white" stroke-width="2" stroke-linecap="round" stroke-linejoin="round"/>
<path d="M2.29272 19.25H19.7094" stroke="white" stroke-width="2"/>
</svg>
