<svg width="16" height="15" viewBox="0 0 16 15" fill="none" xmlns="http://www.w3.org/2000/svg">
<g clip-path="url(#clip0_2_287)">
<path d="M6.23472 13.8281C6.55959 13.8281 6.82296 13.5658 6.82296 13.2422C6.82296 12.9186 6.55959 12.6562 6.23472 12.6562C5.90985 12.6562 5.64648 12.9186 5.64648 13.2422C5.64648 13.5658 5.90985 13.8281 6.23472 13.8281Z" stroke="white" stroke-width="2" stroke-linecap="round" stroke-linejoin="round"/>
<path d="M12.7054 13.8281C13.0303 13.8281 13.2937 13.5658 13.2937 13.2422C13.2937 12.9186 13.0303 12.6562 12.7054 12.6562C12.3805 12.6562 12.1172 12.9186 12.1172 13.2422C12.1172 13.5658 12.3805 13.8281 12.7054 13.8281Z" stroke="white" stroke-width="2" stroke-linecap="round" stroke-linejoin="round"/>
<path d="M1.5293 1.52344H3.88224L5.45871 9.36914C5.5125 9.6389 5.65983 9.88123 5.87491 10.0537C6.08999 10.2262 6.35912 10.3178 6.63518 10.3125H12.3528C12.6289 10.3178 12.898 10.2262 13.1131 10.0537C13.3282 9.88123 13.4755 9.6389 13.5293 9.36914L14.4705 4.45312H4.47047" stroke="white" stroke-width="2" stroke-linecap="round" stroke-linejoin="round"/>
</g>
<defs>
<clipPath id="clip0_2_287">
<rect width="16" height="15" fill="white"/>
</clipPath>
</defs>
</svg>
