<svg width="41" height="42" viewBox="0 0 41 42" fill="none" xmlns="http://www.w3.org/2000/svg">
<mask id="mask0_103_46" style="mask-type:luminance" maskUnits="userSpaceOnUse" x="0" y="0" width="38" height="37">
<path d="M0 0H37.5004V36.9587H0V0Z" fill="white"/>
</mask>
<g mask="url(#mask0_103_46)">
<path d="M26.6095 2C23.8201 2 21.2548 3.17343 19.5 5.154C17.7452 3.17343 15.1799 2 12.3896 2C7.21467 2 3 6.09886 3 11.1426C3 24.0493 18.0898 33.3899 18.7346 33.7867C18.9596 33.9235 19.2298 34 19.5 34C19.6196 34 19.725 33.9847 19.8446 33.9541C18.6904 32.2317 18.0003 30.145 18.0003 27.9043C18.0003 22.0228 22.7102 17.2383 28.4998 17.2383C30.6001 17.2383 32.5498 17.8628 34.185 18.9444C35.2949 16.5373 36 13.9313 36 11.1426C36 6.09886 31.7853 2 26.6095 2Z" fill="#FF903F"/>
</g>
<mask id="mask1_103_46" style="mask-type:luminance" maskUnits="userSpaceOnUse" x="20" y="20" width="21" height="23">
<path d="M20.3184 20.9143H40.7731V42.2222H20.3184V20.9143Z" fill="white"/>
</mask>
<g mask="url(#mask1_103_46)">
<path d="M38.5602 36.4391L34.7505 32.6292C35.5365 31.4431 35.9996 30.0253 35.9996 28.4993C35.9996 24.3637 32.6352 21 28.4998 21C24.3644 21 21 24.3637 21 28.4993C21 32.6349 24.3644 35.9995 28.4998 35.9995C30.0258 35.9995 31.4425 35.5363 32.6296 34.7502L36.4393 38.5601C37.0257 39.1466 37.9737 39.1466 38.5602 38.5601C39.1466 37.9736 39.1466 37.0256 38.5602 36.4391ZM28.4998 32.9992C26.0193 32.9992 24.0001 30.9808 24.0001 28.4993C24.0001 26.0187 26.0193 23.9993 28.4998 23.9993C30.9813 23.9993 32.9995 26.0187 32.9995 28.4993C32.9995 30.9808 30.9813 32.9992 28.4998 32.9992Z" fill="#FF903F"/>
</g>
</svg>
