<svg width="31" height="39" viewBox="0 0 31 39" fill="none" xmlns="http://www.w3.org/2000/svg">
<path fill-rule="evenodd" clip-rule="evenodd" d="M15.5 10.1672C18.5567 10.1672 21.0357 7.89409 21.0357 5.09117C21.0357 2.28824 18.5567 0.0151367 15.5 0.0151367C12.4433 0.0151367 9.96429 2.28824 9.96429 5.09117C9.96429 7.89409 12.4433 10.1672 15.5 10.1672ZM20.4031 37.3127L16.5083 29.4569C16.1151 28.6637 14.8849 28.6637 14.4917 29.4569L10.5969 37.3127C10.2114 38.0909 9.36568 38.5905 8.43428 38.5905C6.93502 38.5905 5.8103 37.3318 6.10466 35.9837L9.4887 20.467C9.77207 19.1691 9.10757 17.8511 7.84446 17.2077L1.18952 13.8186C0.455818 13.4446 0 12.7339 0 11.9638C0 10.5543 1.4707 9.53684 2.94909 9.9239L12.7519 12.4926C14.5477 12.9631 16.4523 12.9631 18.2481 12.4926L28.0509 9.9239C29.5293 9.53684 31 10.5543 31 11.9638C31 12.7339 30.5442 13.4446 29.8105 13.8186L23.1555 17.2077C21.8924 17.8511 21.2279 19.1691 21.5113 20.467L24.8953 35.9837C25.1897 37.3318 24.065 38.5905 22.5657 38.5905C21.6343 38.5905 20.7886 38.0909 20.4031 37.3127Z" fill="#FF903F"/>
</svg>
