<svg width="45" height="44" viewBox="0 0 45 44" fill="none" xmlns="http://www.w3.org/2000/svg">
<mask id="mask0_2_378" style="mask-type:luminance" maskUnits="userSpaceOnUse" x="28" y="6" width="12" height="12">
<path d="M28.0156 6.23633H39.521V17.4384H28.0156V6.23633Z" fill="white"/>
</mask>
<g mask="url(#mask0_2_378)">
<path d="M37.2613 9.58902H30.4835V8.47115H37.2613V9.58902ZM37.2613 11.8247H36.1323V10.7069H37.2613V11.8247ZM35.0023 11.8247H30.4835V10.7069H35.0023V11.8247ZM37.8267 6.23633H29.919C28.9834 6.23633 28.2246 6.98698 28.2246 7.91267V12.3832C28.2246 13.3089 28.9834 14.0596 29.919 14.0596H31.4256L30.8438 17.4294L36.2928 14.0596H37.8267C38.7596 14.0596 39.5211 13.3089 39.5211 12.3832V7.91267C39.5211 6.98698 38.7596 6.23633 37.8267 6.23633Z" fill="#FF903F"/>
</g>
<path d="M27.0943 27.4703C28.0272 27.4703 28.7887 26.7196 28.7887 25.7939V21.3243H27.6588V25.7939C27.6588 26.1025 27.4052 26.3533 27.0943 26.3533H25.9187C26.3045 25.6938 26.5298 24.9323 26.5298 24.1176V21.3017C24.8326 21.1772 23.2512 20.4834 22.011 19.3159C20.7689 20.4834 19.1866 21.1772 17.4922 21.3017V24.1176C17.4922 26.5825 19.5177 28.5881 22.011 28.5881C23.1518 28.5881 24.1933 28.1623 24.9895 27.4703H27.0943Z" fill="#FF903F"/>
<path d="M22.012 12.9417C18.5858 12.9417 15.7988 15.6989 15.7988 19.0885V21.0753C15.973 20.9742 16.1627 20.8957 16.3633 20.8434V20.2064H16.9288C18.5986 20.2064 20.1671 19.5622 21.35 18.3947L22.012 17.7397L22.6741 18.3947C23.8542 19.5622 25.4255 20.2064 27.0953 20.2064H28.2253V19.0885C28.2253 15.6989 25.4365 12.9417 22.012 12.9417Z" fill="#FF903F"/>
<path d="M16.3633 23.9632V22.0378C16.0259 22.2318 15.7988 22.5873 15.7988 23.0005C15.7988 23.4128 16.0259 23.7683 16.3633 23.9632Z" fill="#FD8F3F"/>
<path d="M28.407 31.0177L24.4591 30.3086L22.0105 32.7311L19.561 30.3086L15.6121 31.0177C14.5971 31.2009 13.7654 31.9146 13.4389 32.8836L13.4316 32.8989L14.6856 34.1395L17.5492 31.5744L21.3065 35.2934H31.3919L30.5802 32.8836C30.2556 31.9146 29.4211 31.2009 28.407 31.0177Z" fill="#FF903F"/>
<path d="M20.3164 29.4478V29.4739L22.0108 31.1512L23.7053 29.4739V29.4478C23.169 29.6165 22.6 29.7058 22.0108 29.7058C21.419 29.7058 20.8499 29.6165 20.3164 29.4478Z" fill="#FD8F3F"/>
<path d="M6.80078 25.6026L10.9885 29.7447L12.4486 28.3003L8.26084 24.1572L6.80078 25.6026Z" fill="#F48A3D"/>
<mask id="mask1_2_378" style="mask-type:luminance" maskUnits="userSpaceOnUse" x="4" y="7" width="23" height="16">
<path d="M4.55249 7.73755H26.8482V22.2887H4.55249V7.73755Z" fill="white"/>
</mask>
<g mask="url(#mask1_2_378)">
<path d="M9.87483 20.1252L9.29482 19.1697L7.76363 20.0774C9.36504 13.6318 15.2235 9.03046 22.0122 9.03046C23.495 9.03046 24.9596 9.2488 26.3632 9.67826L26.696 8.61092C25.1849 8.14808 23.609 7.9126 22.0122 7.9126C14.6316 7.9126 8.27342 12.9633 6.62003 20.0079L5.55029 18.2413L4.58179 18.8179L6.56713 22.0903L9.87483 20.1252Z" fill="#F68B3D"/>
</g>
<mask id="mask2_2_378" style="mask-type:luminance" maskUnits="userSpaceOnUse" x="33" y="16" width="7" height="18">
<path d="M33.3867 16.5144H39.4549V33.6063H33.3867V16.5144Z" fill="white"/>
</mask>
<g mask="url(#mask2_2_378)">
<path d="M33.9516 19.9184L34.921 20.494L35.9087 18.8637C36.4294 20.3695 36.6966 21.9439 36.6966 23.5589C36.6966 26.8836 35.532 30.1316 33.4199 32.7075L34.2963 33.4104C36.5735 30.636 37.8265 27.1389 37.8265 23.5589C37.8265 21.8501 37.5466 20.18 37.0058 18.5822L38.6646 19.5665L39.2446 18.6102L35.9379 16.646L33.9516 19.9184Z" fill="#F68B3D"/>
</g>
<path d="M15.875 34.5797L20.071 38.7318L21.697 37.2584L17.512 33.1172L15.875 34.5797Z" fill="#F68B3D"/>
<mask id="mask3_2_378" style="mask-type:luminance" maskUnits="userSpaceOnUse" x="4" y="26" width="16" height="15">
<path d="M4.55249 26.2153H19.3774V40.882H4.55249V26.2153Z" fill="white"/>
</mask>
<g mask="url(#mask3_2_378)">
<path d="M14.2696 35.3052L10.2186 31.2975C10.0071 31.09 10.0052 30.7598 10.1949 30.5424L6.00263 26.3921L5.73998 26.6519C4.99217 27.39 4.58179 28.3725 4.58179 29.4182C4.58179 30.463 4.99217 31.4455 5.73998 32.1835L13.374 39.7361C14.12 40.4741 15.1132 40.8819 16.1692 40.8819C17.2244 40.8819 18.2175 40.4741 18.9471 39.7532L19.2389 39.4889L15.0329 35.3269C14.8168 35.51 14.473 35.5082 14.2696 35.3052Z" fill="#F68B3D"/>
</g>
</svg>
