<svg width="66" height="49" viewBox="0 0 66 49" fill="none" xmlns="http://www.w3.org/2000/svg">
<path d="M58.4629 27.6891C57.1157 29.1387 55.8402 30.2969 54.5967 31.1919C52.5872 30.624 50.4306 30.1427 48.1531 29.7592C48.4852 29.3794 48.8192 28.9864 49.1494 28.5709C51.2174 25.98 53.0835 22.7216 53.0986 19.6043C53.1099 18.1678 52.8797 16.8893 52.4797 15.7649C52.491 15.7386 52.5061 15.7123 52.525 15.686C52.4854 15.6032 52.4608 15.5111 52.4457 15.4171C54.0609 14.6613 55.7213 14.1987 57.2912 14.1987C58.4365 14.1987 59.461 14.4751 60.2762 14.9978C60.3479 15.0429 60.4214 15.0881 60.4913 15.1388C61.3158 15.7367 62.3442 17.0905 62.5253 18.9349C62.5989 19.6757 62.5309 20.4541 62.3347 21.2588C61.8272 22.7216 60.6913 24.7616 59.1912 26.8637C58.9591 27.1382 58.7176 27.4127 58.4629 27.6891ZM43.836 29.1556C42.9945 29.0597 42.1397 28.9789 41.2812 28.9074C40.1604 28.8115 39.0283 28.7363 37.8868 28.6799C37.0566 28.6404 35.5886 28.5953 34.7508 28.5746C34.8074 24.9271 34.6622 21.2287 35.0471 18.9443C35.615 15.5543 39.0132 13.2699 42.036 13.2079C43.7945 13.1778 45.755 13.4673 47.1984 14.6406C47.3569 14.7684 47.5116 14.9057 47.6569 15.0561C48.2456 15.669 48.7135 16.4756 48.9777 17.5154C49.1305 18.1246 49.2154 18.8108 49.2117 19.5892C49.2117 19.7434 49.1777 19.9145 49.1607 20.0875C49.1154 20.5575 48.9777 21.0934 48.6494 21.7928C47.9022 23.3966 46.7286 25.3746 45.3587 27.2115C44.8587 27.8827 44.3436 28.5333 43.836 29.1556ZM28.0695 28.6799C26.9298 28.7363 25.7977 28.8115 24.6769 28.9074C23.8184 28.9789 22.9637 29.0597 22.1221 29.1556C21.6146 28.5333 21.0995 27.8827 20.5994 27.2115C19.2296 25.3746 18.056 23.3966 17.3088 21.7928C16.9805 21.0934 16.8427 20.5575 16.7974 20.0875C16.7805 19.9145 16.7465 19.7434 16.7465 19.5892C16.7408 18.8108 16.8257 18.1246 16.9805 17.5154C17.2446 16.4756 17.7126 15.669 18.3013 15.0561C18.4466 14.9057 18.5994 14.7684 18.7579 14.6406C20.2032 13.4673 22.1636 13.1778 23.9222 13.2079C26.9449 13.2699 30.3413 15.5543 30.9111 18.9443C31.296 21.2287 31.1507 24.9271 31.2073 28.5746C30.3696 28.5953 28.9016 28.6404 28.0695 28.6799ZM11.3614 31.1919C10.118 30.2969 8.84248 29.1387 7.49527 27.6891C7.24054 27.4127 6.99902 27.1382 6.76694 26.8637C5.26689 24.7616 4.13101 22.7216 3.62345 21.2588C3.42721 20.4541 3.35929 19.6757 3.43287 18.9349C3.61401 17.0905 4.64235 15.7367 5.4669 15.1388C5.53483 15.0881 5.60841 15.0429 5.682 14.9978C6.49712 14.4751 7.52168 14.1987 8.667 14.1987C10.235 14.1987 11.8973 14.6613 13.5124 15.4171C13.4973 15.5111 13.4728 15.6032 13.4332 15.686C13.4502 15.7123 13.4672 15.7386 13.4785 15.7649C13.0785 16.8893 12.8483 18.1678 12.8596 19.6043C12.8747 22.7216 14.7408 25.98 16.8088 28.5709C17.139 28.9864 17.4729 29.3794 17.805 29.7592C15.5276 30.1427 13.3709 30.624 11.3614 31.1919ZM60.9535 29.9716C69.1481 21.1404 65.4518 14.5691 62.4913 12.422C62.1366 12.1644 61.7592 11.9369 61.363 11.7394C60.1573 11.1434 58.7742 10.8332 57.2912 10.8332C57.1666 10.8332 57.0421 10.837 56.9157 10.8407C54.8043 10.9122 52.6231 11.574 50.5532 12.6006C50.5193 12.5667 50.4891 12.5348 50.4494 12.4953C48.3079 10.3406 45.2247 9.4569 41.8812 9.55843C39.7529 9.62611 37.8056 10.3838 36.1433 11.6248C37.0452 10.8576 37.5887 9.78029 37.5377 8.58825C37.4396 6.505 35.7018 4.8354 33.5527 4.52893C33.5508 4.16229 33.547 3.37449 33.5451 3.00785C34.1319 3.00598 34.7206 2.99845 35.3093 2.98717V1.93051C34.7169 1.94367 34.1244 1.95119 33.5319 1.95307C33.5282 1.31193 33.5225 0.668903 33.5149 0.0277591C33.3376 0.0277591 33.1583 0.027759 32.9791 0.0258789C32.7998 0.027759 32.6206 0.0277591 32.4413 0.0277591C32.4357 0.668903 32.43 1.31193 32.4243 1.95307C31.9036 1.95119 31.3828 1.94367 30.8601 1.93239V2.99093C31.479 3.00597 32.013 3.01162 32.413 3.00785C32.4093 3.37449 32.4074 4.16229 32.4055 4.52893C30.2564 4.8354 28.5186 6.505 28.4204 8.58825C28.3695 9.78029 28.9129 10.8576 29.8148 11.6248C28.1525 10.3838 26.2034 9.62611 24.0769 9.55843C20.7315 9.4569 17.6503 10.3406 15.5087 12.4953C15.4691 12.5348 15.4389 12.5667 15.4049 12.6006C13.3351 11.574 11.1539 10.9122 9.04248 10.8407C8.91607 10.837 8.79153 10.8332 8.667 10.8332C7.18394 10.8332 5.80087 11.1434 4.59518 11.7394C4.19894 11.9369 3.82157 12.1644 3.46684 12.422C0.506367 14.5691 -3.19186 21.1404 5.00274 29.9716C4.74801 29.6952 4.50461 29.4226 4.27252 29.1537C4.25554 29.1631 4.23856 29.1688 4.22158 29.1782C5.30652 30.5263 6.39334 31.7108 7.26318 32.5531C7.2462 32.5588 7.22733 32.5663 7.21035 32.5738C9.13871 34.108 8.51039 35.6291 9.21041 37.1389H9.07267C9.07645 37.1784 9.08211 37.2197 9.08588 37.2611C8.90097 37.2912 8.71417 37.3175 8.52926 37.3476C8.31605 38.0621 8.11038 38.784 7.91603 39.5117C8.2802 40.1284 8.64625 40.7432 9.01229 41.3524C9.18022 41.3167 9.34815 41.2866 9.51608 41.2527C9.73685 43.2645 9.94063 45.0996 9.94063 45.0996H9.9878C10.056 44.9268 10.2018 44.7572 10.4199 44.5918C11.5627 43.7247 14.6895 42.9709 19.0249 42.4521C22.8965 41.9889 27.732 41.7131 32.9791 41.7115C38.2262 41.7131 43.0616 41.9889 46.9332 42.4521C51.0411 42.9437 54.0638 43.6462 55.342 44.4562C55.6702 44.6642 55.8834 44.8792 55.9704 45.0996H56.0156C56.0156 45.0996 56.2213 43.2645 56.4421 41.2527C56.61 41.2866 56.7779 41.3167 56.944 41.3524C57.3119 40.7432 57.678 40.1284 58.0421 39.5117C57.8478 38.784 57.6421 38.0621 57.4289 37.3476C57.244 37.3175 57.0572 37.2912 56.8723 37.2611C56.8761 37.2197 56.8817 37.1784 56.8855 37.1389H56.7459C57.4459 35.6291 56.8194 34.108 58.7478 32.5738C58.7308 32.5663 58.712 32.5588 58.695 32.5531C59.5648 31.7108 60.6516 30.5263 61.7366 29.1782C61.7196 29.1688 61.7007 29.1631 61.6856 29.1537C61.4536 29.4226 61.2102 29.6952 60.9535 29.9716Z" fill="#FF903F"/>
<path fill-rule="evenodd" clip-rule="evenodd" d="M10.4199 42.4521H19.0249C14.6895 42.9709 11.5627 43.7247 10.4199 44.5918V42.4521ZM55.342 44.4562C54.0638 43.6462 51.0411 42.9437 46.9332 42.4521H55.342V44.4562ZM33.1273 48.0382H32.832L32.9796 48.0385L33.1273 48.0382Z" fill="#FF903F"/>
<path d="M55.2426 45.3253C52.6104 44.0431 44.6102 42.6141 32.9796 42.6104C21.3491 42.6141 13.3488 44.0431 10.7148 45.3253C13.3433 46.5947 21.2833 48.0113 32.832 48.0382H33.1273C44.676 48.0113 52.616 46.5947 55.2426 45.3253Z" fill="#FF903F"/>
</svg>
