<svg width="52" height="52" viewBox="0 0 52 52" fill="none" xmlns="http://www.w3.org/2000/svg">
<path d="M45.6281 9.24092L46.6743 10.5408L39.8552 15.9263L38.8104 14.6251L45.6281 9.24092Z" fill="#FF903F"/>
<path d="M37.8145 3.06282L36.3006 2.34127L32.5214 10.119L34.0285 10.8406L37.8145 3.06282Z" fill="#FF903F"/>
<path d="M24.533 0.103027H26.6091V8.91026H24.533V0.103027Z" fill="black"/>
<path d="M24.8711 0.132489H26.5444V8.77506H24.8711V0.132489Z" fill="#FF903F"/>
<path d="M18.8924 10.1191L15.1146 2.34132L13.5994 3.06288L17.3853 10.8407L18.8924 10.1191Z" fill="#FF903F"/>
<path d="M5.79162 9.23922L12.6053 14.6288L11.5591 15.93L4.7441 10.5391L5.79162 9.23922Z" fill="#FF903F"/>
<path d="M19.7597 44.7952L31.665 42.6653V41.1713L19.7597 43.2945V44.7952Z" fill="#FF903F"/>
<path d="M39.1495 26.0522C39.1495 18.6961 33.1347 12.7349 25.7074 12.7349C18.295 12.7349 12.2734 18.6961 12.2734 26.0522C12.2734 31.2918 15.3227 35.8166 19.7588 37.9973V42.2075L31.6641 40.0776V37.9973C36.0988 35.8166 39.1495 31.2918 39.1495 26.0522Z" fill="#FF903F"/>
<path d="M8.89854 21.3989L0.3967 19.4685L0.0290532 21.091L8.53089 23.0133L8.89854 21.3989Z" fill="#FF903F"/>
<path d="M42.8832 23.0136L42.5156 21.3991L51.0188 19.4687L51.3932 21.0912L42.8832 23.0136Z" fill="#FF903F"/>
<path d="M26.0303 46.2651H21.0722V47.1536L26.0303 46.2651Z" fill="#FF903F"/>
<path fill-rule="evenodd" clip-rule="evenodd" d="M21.0722 47.1536L20.3923 47.2755C20.1477 46.8391 19.9666 46.3679 19.8652 45.8658L31.6637 43.7587V44.8377C31.6637 44.9796 31.6556 45.1229 31.6421 45.2594L26.0303 46.2651H21.0722V47.1536Z" fill="#FF903F"/>
<path d="M31.4197 46.3964L21.0918 48.2412C21.431 48.6133 21.8203 48.9279 22.2609 49.1849V51.4794H29.1692V49.1849C30.2221 48.5557 31.0304 47.5691 31.4197 46.3964Z" fill="#FF903F"/>
</svg>
