<svg width="55" height="54" viewBox="0 0 55 54" fill="none" xmlns="http://www.w3.org/2000/svg">
<path fill-rule="evenodd" clip-rule="evenodd" d="M25.7482 17.2924C26.1639 17.2517 26.5819 17.2314 27 17.2314V17.2325C27.4181 17.2325 27.835 17.2541 28.2518 17.2948C28.6675 17.3367 29.0808 17.3978 29.4917 17.4804C29.9014 17.5618 30.3063 17.6636 30.7064 17.7857C31.1065 17.9079 31.5006 18.0479 31.8863 18.2084C32.2732 18.3688 32.6506 18.5472 33.0195 18.7448C33.3873 18.9424 33.7455 19.1567 34.0941 19.389C34.4415 19.6213 34.7769 19.8703 35.1003 20.1361C35.4238 20.4008 35.7328 20.6809 36.0287 20.9767C36.3246 21.2724 36.6049 21.5825 36.8696 21.9058C37.1356 22.2279 37.3847 22.5644 37.6171 22.9116C37.8495 23.2588 38.064 23.6169 38.2616 23.9856C38.4593 24.3544 38.6378 24.7316 38.7983 25.1183C38.9576 25.5039 39.099 25.8966 39.2211 26.2965C39.3421 26.6976 39.444 27.1024 39.5266 27.5118C39.6081 27.9225 39.6692 28.3344 39.7111 28.7511C39.753 29.1666 39.7734 29.5845 39.7734 30.0023C39.7734 30.4202 39.753 30.8381 39.7123 31.2536C39.6716 31.6703 39.6093 32.0834 39.5278 32.4928C39.4464 32.9035 39.3445 33.3082 39.2235 33.7094C39.1014 34.1093 38.9612 34.502 38.8007 34.8888C38.6402 35.2755 38.4617 35.6527 38.264 36.0215C38.0676 36.3902 37.8519 36.7482 37.6195 37.0967C37.3871 37.4439 37.138 37.7792 36.8732 38.1025C36.6073 38.4257 36.327 38.7359 36.0311 39.0316C35.7352 39.3274 35.425 39.6075 35.1015 39.8733C34.7781 40.138 34.4427 40.387 34.0941 40.6193C33.7467 40.8516 33.3885 41.0659 33.0195 41.2635C32.6506 41.461 32.272 41.6394 31.8851 41.7987C31.4994 41.9591 31.1053 42.0992 30.7052 42.2214C30.3051 42.3423 29.899 42.4441 29.4893 42.5255C29.0784 42.6069 28.6651 42.668 28.2482 42.7087C27.8326 42.7506 27.4145 42.7709 26.9964 42.7709C26.5783 42.7709 26.1603 42.7494 25.7446 42.7087C25.3277 42.668 24.9144 42.6069 24.5035 42.5255C24.0939 42.4429 23.6878 42.3423 23.2877 42.2202C22.8876 42.0992 22.4934 41.9579 22.1077 41.7975C21.7208 41.6382 21.3434 41.4586 20.9745 41.2623C20.6055 41.0647 20.2461 40.8504 19.8988 40.6181C19.5514 40.3846 19.2147 40.1368 18.8913 39.8709C18.5679 39.6051 18.2588 39.325 17.9629 39.0292C17.667 38.7335 17.3867 38.4233 17.1208 38.1001C16.856 37.7768 16.6069 37.4415 16.3745 37.0943C16.1421 36.7459 15.9277 36.3878 15.73 36.0191C15.5323 35.6503 15.3539 35.2719 15.1945 34.8864C15.034 34.4996 14.8927 34.1057 14.7717 33.7058C14.6507 33.3059 14.5489 32.8999 14.4674 32.4905C14.3859 32.0798 14.3248 31.6667 14.2829 31.2512C14.2422 30.8345 14.2218 30.4166 14.2218 29.9988C14.2218 29.5809 14.2422 29.163 14.2841 28.7475C14.3248 28.3308 14.3859 27.9178 14.4674 27.5083C14.5501 27.0976 14.6519 26.6929 14.7729 26.2917C14.8939 25.8918 15.0352 25.4991 15.1957 25.1123C15.3551 24.7256 15.5347 24.3484 15.7312 23.9796C15.9289 23.6109 16.1433 23.2529 16.3769 22.9044C16.6093 22.5572 16.8572 22.2219 17.1232 21.8986C17.3891 21.5754 17.6694 21.2652 17.9653 20.9695C18.2612 20.6738 18.5715 20.3936 18.8949 20.1278C19.2183 19.8631 19.5538 19.6141 19.9011 19.3818C20.2497 19.1495 20.6079 18.9352 20.9769 18.7376C21.3458 18.5413 21.7244 18.3617 22.1101 18.2024C22.497 18.042 22.8911 17.9019 23.2913 17.7797C23.6914 17.6588 24.0974 17.557 24.5071 17.4756C24.918 17.3942 25.3313 17.3331 25.7482 17.2924ZM24.7 35.9041L35.0404 25.5602C35.1375 25.462 35.2117 25.3494 35.2644 25.2213C35.3171 25.0932 35.3435 24.9603 35.3435 24.8226C35.3435 24.6837 35.3159 24.5508 35.2632 24.4239C35.2105 24.2958 35.1351 24.1832 35.0368 24.085C34.9374 23.9904 34.8236 23.9174 34.6966 23.8671C34.5684 23.8168 34.4355 23.7917 34.2989 23.7917C34.1611 23.7929 34.0282 23.818 33.9012 23.8695C33.7742 23.921 33.6604 23.9952 33.5622 24.0898L24.0795 33.5741L20.5432 29.4983C20.5061 29.4372 20.4618 29.3821 20.4127 29.3306C20.3635 29.2803 20.3084 29.2336 20.2497 29.1941C20.191 29.1546 20.1288 29.1199 20.0641 29.0936C19.9982 29.066 19.9299 29.0457 19.8604 29.0313C19.7909 29.0181 19.7203 29.0121 19.6484 29.0133C19.5777 29.0133 19.507 29.0217 19.4376 29.0373C19.3681 29.0528 19.301 29.0744 19.2363 29.1031C19.1716 29.1331 19.1093 29.1678 19.0518 29.2097C18.9943 29.2504 18.9416 29.2983 18.8937 29.3498C18.8458 29.4025 18.8027 29.4587 18.7667 29.5198C18.7296 29.5809 18.6996 29.6455 18.6769 29.7126C18.6529 29.7796 18.6361 29.8491 18.6278 29.9185C18.6182 29.9892 18.6158 30.0598 18.6206 30.1317C18.6266 30.2023 18.6385 30.2718 18.6577 30.34C18.6769 30.4082 18.7032 30.4741 18.7356 30.5376C18.7691 30.601 18.8074 30.6597 18.853 30.7148L23.1092 35.7724C23.1439 35.8215 23.1822 35.8658 23.2242 35.9077C23.4266 36.1113 23.6722 36.2118 23.9597 36.2106H23.9621C24.2508 36.2106 24.4964 36.1089 24.7 35.9041Z" fill="#FF903F"/>
<path fill-rule="evenodd" clip-rule="evenodd" d="M44.2392 25.2608C43.7768 23.9689 43.2186 22.6147 42.5801 21.2353C41.8949 19.7913 41.8003 18.7987 43.1898 17.4074C43.802 16.7943 44.4297 16.1741 45.0502 15.5622L41.484 11.9965L41.2384 12.242C40.6239 12.8598 40.0106 13.4741 39.3841 14.0823C39.2858 14.1961 39.1792 14.3014 39.063 14.3972C38.9456 14.4918 38.8222 14.5768 38.6905 14.6499C38.5599 14.7241 38.4233 14.7852 38.2808 14.8342C38.1382 14.8833 37.9933 14.9205 37.8447 14.9432C37.6962 14.9672 37.5465 14.9779 37.3955 14.9743C37.2458 14.9719 37.096 14.9552 36.9487 14.9264C36.8014 14.8965 36.6576 14.8546 36.5175 14.7995C36.3773 14.7444 36.2431 14.6774 36.115 14.5996C34.6403 13.7878 33.0938 13.1508 31.4754 12.6886C31.3281 12.6503 31.1855 12.5988 31.0466 12.5353C30.9088 12.4719 30.7758 12.3976 30.6513 12.3102C30.5255 12.224 30.4081 12.1282 30.2991 12.0217C30.1901 11.9151 30.0918 11.8001 30.0032 11.6756C29.9133 11.5523 29.8367 11.4218 29.7696 11.2853C29.7037 11.1476 29.6498 11.0063 29.6079 10.859C29.5659 10.713 29.5372 10.5645 29.5216 10.4124C29.506 10.2615 29.5036 10.1095 29.5132 9.95742C29.506 9.26415 29.5084 8.57088 29.5132 7.87881V6.99995H24.4976V9.71436C24.4976 11.599 23.6398 12.2887 22.2646 12.7916C20.8894 13.2944 19.5118 13.856 18.1833 14.4762C16.7938 15.1324 15.7839 15.2354 14.4398 13.8931C13.8601 13.322 13.2743 12.7341 12.7077 12.1653L12.5843 12.042L9.01688 15.603C9.5787 16.1681 10.1405 16.7321 10.7035 17.2936C12.2093 18.7987 12.1806 19.6764 11.3432 21.3946C10.7646 22.5979 10.2531 23.8312 9.8099 25.092C9.2361 26.7707 8.62037 27.5262 6.49526 27.5262H4V32.53H6.72766C8.56766 32.53 9.26485 33.3957 9.74162 34.6936C10.2483 36.0777 10.8365 37.5038 11.4942 38.9322C12.0788 40.2074 12.1878 41.2551 10.9252 42.5363L8.99292 44.4604L12.5651 48.0225C13.1832 47.3987 13.8157 46.7665 14.4494 46.1343C15.7683 44.8172 16.8081 44.9262 18.1594 45.5656C19.4519 46.1631 20.8391 46.7354 22.2742 47.2598C23.6446 47.7603 24.494 48.4524 24.494 50.349V53H29.5156V50.3634C29.5156 48.6571 30.1326 47.8106 31.7917 47.2407C32.9836 46.8611 34.1444 46.4037 35.274 45.8649C37.6327 44.6951 38.2113 44.7837 40.0441 46.618C40.5221 47.0958 40.9953 47.5735 41.4589 48.0441L42.4064 47.0982C42.6999 46.8048 42.9926 46.5127 43.2848 46.221L43.2866 46.2192C43.8693 45.6376 44.4502 45.0577 45.0322 44.4736L44.6944 44.1359C44.1374 43.5863 43.5768 43.0308 43.0245 42.4716C42.8988 42.3674 42.785 42.2525 42.6807 42.128C42.5777 42.0034 42.4855 41.8693 42.4064 41.7281C42.3273 41.5856 42.2615 41.4383 42.2099 41.2838C42.1572 41.1306 42.1201 40.9737 42.0961 40.8121C42.0734 40.6516 42.065 40.49 42.0722 40.3283C42.0782 40.1655 42.0997 40.0051 42.1357 39.847C42.1716 39.689 42.2219 39.5345 42.2866 39.386C42.3513 39.2364 42.428 39.0951 42.519 38.9598C43.2761 37.6008 43.8691 36.1747 44.3003 34.6804C44.3339 34.52 44.3806 34.3643 44.4405 34.2122C44.5016 34.0614 44.5758 33.9165 44.6633 33.7776C44.7507 33.6399 44.849 33.5106 44.9604 33.3909C45.0706 33.2699 45.1916 33.161 45.3221 33.0628C45.4527 32.9634 45.5905 32.8784 45.7366 32.8054C45.8828 32.7311 46.0337 32.6724 46.1906 32.6258C46.3476 32.5803 46.5081 32.5491 46.671 32.5324C46.8327 32.5156 46.9956 32.5132 47.1585 32.5264H50V27.5226H47.3622C45.6444 27.5059 44.831 26.9144 44.2392 25.2608ZM25.5493 44.7274C26.0309 44.7753 26.5148 44.7981 27 44.7981C27.4852 44.7981 27.9679 44.7729 28.4507 44.725C28.9322 44.6771 29.4114 44.6065 29.887 44.5107C30.3626 44.4161 30.8309 44.2976 31.2945 44.1575C31.7593 44.0162 32.2145 43.8534 32.6626 43.6678C33.1094 43.481 33.5478 43.275 33.9743 43.0463C34.4019 42.8176 34.8176 42.5686 35.2201 42.2992C35.6226 42.0298 36.0119 41.7412 36.3857 41.4347C36.7606 41.127 37.12 40.8013 37.4626 40.4589C37.8052 40.1164 38.1298 39.7584 38.4377 39.3836C38.7456 39.0089 39.0331 38.6209 39.3026 38.2186C39.5721 37.8151 39.8213 37.4008 40.0501 36.9734C40.2789 36.5459 40.4861 36.1089 40.6718 35.661C40.8575 35.2144 41.0204 34.7582 41.1618 34.2949C41.3031 33.8315 41.4205 33.3621 41.5152 32.888C41.611 32.4126 41.6817 31.9337 41.7308 31.4523C41.7787 30.9698 41.8027 30.4861 41.8027 30.0023C41.8039 29.5174 41.7799 29.0337 41.732 28.5512C41.6841 28.0686 41.6134 27.5909 41.5188 27.1143C41.4241 26.639 41.3067 26.1696 41.1666 25.7062C41.0252 25.2417 40.8623 24.7867 40.6766 24.3389C40.4909 23.891 40.2849 23.4528 40.0561 23.0254C39.8273 22.5979 39.5781 22.1824 39.3086 21.7801C39.0391 21.3766 38.7516 20.9875 38.4437 20.6127C38.1358 20.2391 37.8112 19.8799 37.4674 19.5375C37.1248 19.1938 36.7666 18.8693 36.3917 18.5616C36.0167 18.2539 35.6274 17.9653 35.2249 17.6959C34.8212 17.4265 34.4055 17.1787 33.9779 16.95C33.5502 16.7213 33.113 16.5141 32.665 16.3285C32.2169 16.143 31.7605 15.9801 31.2969 15.8388C30.8321 15.6987 30.3626 15.5814 29.887 15.4868C29.4114 15.3922 28.9322 15.3204 28.4495 15.2737C27.9667 15.2258 27.484 15.2018 26.9988 15.2018C26.5136 15.2018 26.0297 15.2258 25.5469 15.2725C25.0654 15.3204 24.5862 15.391 24.1106 15.4856C23.6351 15.5802 23.1643 15.6987 22.7007 15.8388C22.2371 15.9801 21.7807 16.143 21.3327 16.3285C20.8846 16.5141 20.4462 16.7201 20.0185 16.9488C19.5909 17.1775 19.1764 17.4265 18.7727 17.6959C18.369 17.9653 17.9809 18.2539 17.6059 18.5604C17.231 18.8681 16.8716 19.1938 16.529 19.5363C16.1864 19.8787 15.8606 20.2379 15.5539 20.6127C15.246 20.9875 14.9573 21.3754 14.6878 21.7789C14.4183 22.1812 14.1691 22.5967 13.9403 23.0242C13.7127 23.4516 13.5055 23.8898 13.3198 24.3377C13.1341 24.7855 12.9712 25.2405 12.8298 25.705C12.6897 26.1684 12.5723 26.6378 12.4777 27.1131C12.383 27.5885 12.3111 28.0674 12.2644 28.55C12.2165 29.0325 12.1926 29.5162 12.1926 30.0011C12.1926 30.4849 12.2165 30.9686 12.2644 31.4511C12.3111 31.9337 12.383 32.4126 12.4777 32.888C12.5723 33.3633 12.6897 33.8327 12.831 34.2973C12.9712 34.7606 13.1341 35.2168 13.3198 35.6646C13.5055 36.1124 13.7127 36.5495 13.9415 36.9769C14.1703 37.4044 14.4195 37.8199 14.689 38.2222C14.9585 38.6257 15.246 39.0148 15.5539 39.3884C15.8618 39.7632 16.1876 40.1224 16.5302 40.4648C16.8728 40.8073 17.2322 41.133 17.6071 41.4407C17.9821 41.7472 18.3702 42.0358 18.7739 42.3052C19.1776 42.5746 19.5921 42.8236 20.0197 43.0523C20.4474 43.2798 20.8858 43.487 21.3339 43.6726C21.7819 43.8581 22.2383 44.021 22.7019 44.1623C23.1655 44.3024 23.6363 44.4197 24.1118 44.5143C24.5874 44.6089 25.0666 44.6795 25.5493 44.7274Z" fill="#FF903F"/>
</svg>
