<svg width="51" height="50" viewBox="0 0 51 50" fill="none" xmlns="http://www.w3.org/2000/svg">
<path d="M39.1143 19.1406C38.5846 22.9121 36.9631 26.5954 34.1613 29.1911C32.838 30.4227 31.312 31.3249 29.6758 31.9157C28.0423 32.5054 26.299 32.7847 24.5378 32.7715C24.5469 32.6107 24.5508 32.4354 24.5508 32.2521C24.5469 31.7683 24.5118 31.2858 24.4363 30.8073C24.3829 30.4751 24.3127 30.1495 24.2294 29.8357C24.6875 29.0883 25.2561 28.408 25.9211 27.8043C27.3097 26.5414 28.9351 25.6107 30.416 24.4796C28.7542 25.4551 27.0234 26.2869 25.4448 27.4061C24.8775 27.8082 24.3348 28.2564 23.8455 28.7442C23.5462 28.0495 23.1545 27.4009 22.6691 26.8287C22.5454 26.6811 22.4179 26.5414 22.2812 26.4029C22.4452 26.0009 22.6248 25.6107 22.8187 25.2218C23.8155 23.2219 25.7103 21.6862 27.5869 20.5986C28.2684 20.201 28.9676 19.842 29.6758 19.503C30.4346 19.1397 31.2039 18.7993 31.9729 18.459C32.6995 18.1375 33.4258 17.8162 34.1431 17.4756C36.1225 16.5317 38.1266 15.1884 38.3205 12.772C39.2991 14.6426 39.4618 17.0814 39.1143 19.1406Z" fill="#FF903F"/>
<path d="M24.2422 38.7634C22.8741 35.8511 19.2144 35.9502 13.5369 33.1878C12.8447 32.8513 12.2616 32.3923 11.7712 31.8463C8.23524 27.9102 9.51361 19.4533 9.47706 19.7812C9.37771 20.698 13.3865 23.0656 18.4653 24.8644C19.1294 25.1004 19.7163 25.3747 20.2349 25.6779C21.075 26.1691 21.7361 26.7363 22.2566 27.3404C22.8285 28.0042 23.2286 28.7136 23.5065 29.4122C23.7374 30.0038 23.8837 30.5846 23.9656 31.1347C24.0475 31.6393 24.0743 32.1117 24.0784 32.5293C24.0784 33.5839 23.9106 34.2973 23.9106 34.2973C23.3964 33.5973 22.8741 32.9977 22.3599 32.4704C21.6191 31.7042 20.8952 31.1041 20.2349 30.6378C19.2308 29.9287 18.374 29.5292 17.8289 29.3265C17.555 29.2262 17.3644 29.1713 17.2691 29.1539C17.21 29.1445 17.1778 29.1405 17.1966 29.1539C17.4141 29.2851 17.6235 29.4176 17.8289 29.5487C18.7582 30.1517 19.5528 30.7657 20.2349 31.3766C20.6171 31.7189 20.9639 32.0602 21.2792 32.3981C21.6054 32.7434 21.9008 33.0927 22.1653 33.4287C24.4919 36.4641 24.3241 38.9361 24.2422 38.7634Z" fill="#FF903F"/>
<path d="M20.1634 2.28579L18.0806 5.93639L15.658 6.59411L17.0992 4.0733C10.0156 6.45885 4.50241 12.3107 2.56192 19.6304C1.5449 23.4521 1.54885 27.4846 2.56587 31.3023L0.879626 31.7611C-0.212479 27.6424 -0.212479 23.2943 0.879626 19.1756C2.99006 11.226 9.00784 4.88351 16.729 2.34812L14.1232 0.836429L16.5459 0.178711L20.1634 2.28579Z" fill="#FF903F"/>
<path fill-rule="evenodd" clip-rule="evenodd" d="M29.6758 31.9157V19.503C30.4346 19.1397 31.2039 18.7993 31.9729 18.459C32.6995 18.1375 33.4258 17.8162 34.1431 17.4756C36.1225 16.5317 38.1266 15.1884 38.3205 12.772C39.2991 14.6426 39.4618 17.0814 39.1143 19.1406C38.5846 22.9121 36.9631 26.5954 34.1613 29.1911C32.838 30.4227 31.312 31.3249 29.6758 31.9157Z" fill="#FF903F"/>
<path d="M50.3036 29.0246L49.6528 31.4685L46.0392 33.5756L43.9525 29.925L44.5993 27.4811L46.0445 30.0019C48.4078 18.411 41.4099 6.78291 29.9316 3.67732L30.3875 1.97998C42.8143 5.34283 50.3707 17.9787 47.7123 30.5324L50.3036 29.0246Z" fill="#FF903F"/>
<path fill-rule="evenodd" clip-rule="evenodd" d="M24.1058 49.7724C24.148 49.7724 24.1902 49.7723 24.2324 49.772H23.9795C24.0216 49.7723 24.0637 49.7724 24.1058 49.7724Z" fill="#FF903F"/>
<path d="M8.0206 43.5108C10.8398 46.082 14.2307 47.9583 17.9154 48.9529C19.9158 49.4907 21.9516 49.7613 23.9795 49.772H24.2324C30.5014 49.7388 36.6396 47.2393 41.1816 42.6555L39.9551 41.413C34.3115 47.0938 26.0423 49.3308 18.366 47.2569C15.0066 46.3472 11.9069 44.6499 9.31953 42.3266L12.2006 42.3359L10.4301 40.5444L6.25532 40.5352L6.24609 44.7493L8.01665 46.5448L8.0206 43.5108Z" fill="#FF903F"/>
<path fill-rule="evenodd" clip-rule="evenodd" d="M20.2349 30.6378V25.6779C19.7163 25.3747 19.1294 25.1004 18.4653 24.8644C13.3865 23.0656 9.37771 20.698 9.47706 19.7812C9.51361 19.4533 8.23524 27.9102 11.7712 31.8463H20.2349V31.3766C19.5528 30.7657 18.7582 30.1517 17.8289 29.5487C17.6235 29.4176 17.4141 29.2851 17.1966 29.1539C17.1778 29.1405 17.21 29.1445 17.2691 29.1539C17.3644 29.1713 17.555 29.2262 17.8289 29.3265C18.374 29.5292 19.2308 29.9287 20.2349 30.6378Z" fill="#FF903F"/>
</svg>
