<svg width="52" height="55" viewBox="0 0 52 55" fill="none" xmlns="http://www.w3.org/2000/svg">
<path d="M48.877 5.80064V5.74481C48.031 4.61818 47.0146 3.66047 45.8307 2.76003V2.81586C44.8716 3.54881 43.9139 4.3376 43.0106 5.12495C42.6169 4.90019 42.2776 4.73127 41.9398 4.56235C41.4888 4.33759 41.0364 4.11141 40.5297 3.99832C40.3608 3.94249 40.1904 3.88666 40.0215 3.88666C39.9084 2.64693 39.7967 1.40864 39.6264 0.168923C39.0638 0.0558303 38.4997 0.0558305 37.8784 0H36.9766C36.4125 0.0558305 35.9043 0.0558303 35.3976 0.168923C35.2286 1.35138 35.1156 2.5911 35.0583 3.8294C34.8335 3.8294 34.6646 3.88666 34.4384 3.94249C34.3826 3.94249 34.3253 3.94249 34.2695 3.99832C33.8186 4.11141 33.3662 4.33759 32.9153 4.56235C32.5216 4.73127 32.1823 4.90019 31.8445 5.12495C30.8853 4.3376 29.9835 3.60464 29.0243 2.81586L28.9685 2.76003C28.7423 2.92895 28.5161 3.09787 28.3472 3.2668C27.9521 3.54881 27.6142 3.88666 27.3322 4.2245C26.824 4.67544 26.4303 5.23804 25.978 5.80064H26.0352C26.7682 6.75835 27.5584 7.66022 28.3472 8.61793C28.1224 8.95577 27.8963 9.34945 27.7273 9.6873C27.5011 10.1382 27.3322 10.645 27.2191 11.0959C27.106 11.3207 27.0502 11.5469 27.0502 11.7158C25.8091 11.8275 24.5693 11.9406 23.384 12.1095C23.2709 12.6721 23.2151 13.2361 23.2151 13.856C23.2151 14.7006 23.2709 15.5452 23.4413 16.334C24.6252 16.4471 25.8091 16.5587 27.0502 16.6718C27.0502 16.8966 27.106 17.1228 27.2191 17.2917C27.2849 17.5862 27.3694 17.8619 27.4732 18.1406C27.5479 18.3415 27.6326 18.5439 27.7273 18.7562C27.79 18.866 27.8485 18.9758 27.9063 19.0844C28.0558 19.3652 28.2011 19.6382 28.4045 19.8828C28.1634 20.1745 27.9223 20.4612 27.6829 20.7459C27.1374 21.3945 26.6004 22.0331 26.0911 22.6987C26.9371 23.8811 27.9521 24.8946 29.1374 25.7393V25.6834C30.0393 24.9519 30.9984 24.1631 31.9003 23.3743H31.9576C32.0986 23.4588 32.2535 23.5433 32.4085 23.6277C32.5635 23.7122 32.7184 23.7966 32.8594 23.8811C33.3662 24.1059 33.9302 24.332 34.4384 24.4437C34.6646 24.501 34.8335 24.5568 35.0025 24.6126C35.0121 24.7132 35.0217 24.8142 35.0313 24.9156C35.1352 26.007 35.243 27.1402 35.3976 28.2745C35.4075 28.2756 35.4175 28.2767 35.4274 28.2778C35.8133 28.3204 36.2006 28.363 36.6133 28.38C36.7321 28.3849 36.853 28.3876 36.9766 28.3876H37.8226C38.4425 28.3876 39.0638 28.3304 39.6836 28.2173C39.7967 27.0348 39.9084 25.7965 40.0215 24.5568C40.1904 24.501 40.3608 24.4437 40.5297 24.3879C41.0364 24.2748 41.4888 24.1059 41.9398 23.8811C42.3349 23.7122 42.7285 23.4874 43.1236 23.2054C43.1236 23.2612 43.1236 23.2612 43.1795 23.2612C44.0828 24.05 45.0419 24.8388 45.9996 25.5703C46.1685 25.4587 46.3389 25.3456 46.5637 25.1767C46.9029 24.8946 47.2408 24.5568 47.5228 24.219C48.031 23.7122 48.5378 23.1482 48.9887 22.5297C48.1999 21.572 47.4097 20.6143 46.6209 19.7124V19.6566C46.7898 19.3746 46.9588 19.0367 47.1277 18.6989C47.2966 18.2494 47.5228 17.7985 47.6359 17.3475C47.6359 17.2917 47.6359 17.2344 47.6917 17.2344C47.6917 17.0097 47.749 16.8407 47.8048 16.7277C49.046 16.616 50.2857 16.5029 51.471 16.3898C51.5841 15.8272 51.5841 15.2632 51.6399 14.7006V13.7429C51.5841 13.1803 51.5841 12.6162 51.471 12.0536C50.2857 11.9406 49.046 11.8275 47.8048 11.7158C47.749 11.5469 47.6917 11.378 47.6917 11.209C47.5228 10.7008 47.3539 10.1941 47.1277 9.6873C46.9588 9.34945 46.7326 8.95577 46.5637 8.61793C47.2966 7.71605 48.0868 6.75835 48.877 5.80064ZM33.8186 10.4761C34.8335 9.40528 36.0733 8.89851 37.4833 8.95577C38.9507 8.89851 40.1346 9.40528 41.2068 10.4761C42.2218 11.4896 42.7285 12.7293 42.7285 14.1366C42.7285 15.601 42.2218 16.7849 41.2068 17.8543C40.1346 18.8678 38.9507 19.3746 37.4833 19.3746C36.0733 19.3746 34.8335 18.8678 33.8186 17.8543C32.8022 16.7849 32.2954 15.601 32.2954 14.1366C32.2954 12.7293 32.8022 11.4896 33.8186 10.4761Z" fill="#FF903F"/>
<path fill-rule="evenodd" clip-rule="evenodd" d="M23.0459 18.9254C22.8197 18.8123 22.6508 18.7564 22.4819 18.7564C21.8076 18.5882 21.1334 18.4754 20.4606 18.3628L20.4519 18.3613C19.8367 19.8681 19.3338 21.3174 18.8306 22.7675L18.8157 22.8106H17.8007C17.1236 22.8678 16.5037 22.9237 15.8824 23.0368C15.3756 23.0926 14.8674 23.2615 14.3607 23.4304C13.6264 22.3773 12.8561 21.3241 12.1083 20.3016L12.1065 20.2991L12.0422 20.2113L12.0262 20.1894C11.8818 19.992 11.7384 19.7958 11.5964 19.601L11.5405 19.5438L11.5341 19.5459C11.1984 19.6583 10.8616 19.7711 10.5814 19.9389C10.0174 20.1636 9.51058 20.4457 9.00238 20.7835C8.2136 21.1772 7.47921 21.6854 6.80352 22.3038V22.3611C7.13703 23.0557 7.45729 23.7506 7.77755 24.4455C8.10614 25.1585 8.43472 25.8715 8.77763 26.5841L8.76298 26.5988C8.37412 26.9876 8.03906 27.3227 7.7054 27.768C7.25446 28.2175 6.85935 28.7816 6.52151 29.3442C6.35115 29.5704 6.23949 29.7951 6.1264 30.0771C4.5474 29.7951 2.9684 29.5131 1.3894 29.2883C1.10739 29.964 0.825372 30.6397 0.599187 31.3727L0.543087 31.6514C0.336544 32.6764 0.138883 33.6574 0.0351562 34.6395L4.43431 36.3287V37.1175C4.43431 37.7374 4.49014 38.413 4.66049 39.0887C4.71632 39.6513 4.88525 40.2154 5.05417 40.778C3.75719 41.6798 2.51603 42.5803 1.21905 43.538C1.89617 45.2272 2.85531 46.8048 3.98337 48.2693H4.0392C4.89397 47.8597 5.74875 47.4706 6.61596 47.0772L6.78894 46.9987L6.78989 46.9982C7.29635 46.7685 7.80732 46.5368 8.32526 46.298C8.49288 46.4649 8.66015 46.6182 8.82725 46.7713L8.85946 46.8009C9.01982 46.9479 9.18003 47.0955 9.34023 47.2557C9.84843 47.7067 10.4683 48.1003 11.1454 48.494C11.2093 48.5368 11.2814 48.5796 11.3586 48.6254C11.4855 48.7007 11.6261 48.7841 11.7667 48.8891C11.4856 50.4046 11.26 51.9769 11.0345 53.548L11.0323 53.5631C11.6536 53.8451 12.2735 54.0699 12.9506 54.2403L12.9599 54.2433C13.1318 54.3002 13.4675 54.4112 14.0214 54.5208C14.747 54.7285 15.4726 54.8397 16.1539 54.944L16.3332 54.9715L16.3348 54.9718C16.9546 53.4515 17.5187 51.987 18.0269 50.4653H18.7598C19.4355 50.4653 20.0568 50.4094 20.6767 50.2963C21.2407 50.1847 21.8047 50.0158 22.3688 49.8468C22.3688 49.8468 22.3688 49.9027 22.426 49.9027C22.877 50.5505 23.3422 51.1982 23.8075 51.846C24.2727 52.4938 24.738 53.1416 25.1889 53.7893C25.3799 53.6749 25.5708 53.5862 25.744 53.5056C25.8266 53.4673 25.9051 53.4307 25.9777 53.3942C26.5327 53.173 27.0337 52.8964 27.5338 52.6203L27.5581 52.6069C28.4042 52.0987 29.193 51.5361 29.9259 50.9162C29.4557 49.8053 28.9525 48.7273 28.4414 47.6323L28.3803 47.5014C28.2378 47.1961 28.0948 46.8894 27.9518 46.58C28.1236 46.409 28.2807 46.2379 28.4378 46.0668C28.591 45.9001 28.7442 45.7333 28.9109 45.5665C29.3061 45.0583 29.7012 44.4957 30.039 43.9889C30.039 43.961 30.053 43.9327 30.0669 43.9045C30.0809 43.8762 30.0948 43.8479 30.0948 43.82C30.1514 43.7355 30.2079 43.6368 30.2645 43.538C30.321 43.4392 30.3776 43.3404 30.4341 43.256C31.2236 43.397 32.0132 43.5237 32.8027 43.6504C33.5922 43.7771 34.3816 43.9038 35.1711 44.0448C35.4531 43.3691 35.6793 42.6934 35.9041 41.9604C35.9613 41.7915 36.0172 41.6226 36.073 41.3978C36.0937 41.3367 36.1069 41.2756 36.1207 41.2118C36.1451 41.0994 36.1712 40.9787 36.2433 40.8352C36.2836 40.5711 36.3314 40.3072 36.3788 40.046C36.4629 39.5822 36.5455 39.1268 36.5812 38.6936C35.659 38.3046 34.7142 37.9597 33.7752 37.617L33.6712 37.579C33.1525 37.3897 32.6359 37.2005 32.1262 37.0044V36.3287C32.1262 35.653 32.0689 34.9201 31.9 34.2444C31.8626 33.9051 31.7746 33.5658 31.6865 33.2265C31.643 33.0591 31.5996 32.8916 31.5622 32.7241C32.8592 31.8236 34.1561 30.8659 35.3973 29.9082H35.4531C35.2478 29.3956 35.0219 28.8936 34.7721 28.4019C34.1979 27.2721 33.4978 26.1974 32.633 25.1769C31.1671 25.7968 29.757 26.4725 28.3469 27.1482L28.2918 27.0933C27.9152 26.7179 27.5398 26.3437 27.163 26.0215L27.139 26.003C26.6388 25.6155 26.1392 25.2283 25.584 24.9522C25.4623 24.8295 25.3109 24.7372 25.1726 24.6529C25.1189 24.6202 25.0672 24.5887 25.02 24.5571C25.1338 23.7583 25.2623 22.96 25.3907 22.1616C25.516 21.3831 25.6413 20.6046 25.7529 19.8258C25.0758 19.5438 24.3429 19.2632 23.6099 19.037C23.4433 18.9819 23.2209 18.9269 23.0527 18.9254L23.0459 18.9254ZM15.0378 30.7528C13.4015 31.7105 12.3293 33.0619 11.8784 34.8642C11.57 35.9609 11.5325 37.0157 11.7665 38.0416C11.917 38.7016 12.18 39.3497 12.5555 39.9892C13.4574 41.5667 14.8674 42.6375 16.6726 43.0871C18.4205 43.5938 20.1126 43.3691 21.8047 42.4114C23.3837 41.5109 24.456 40.1581 24.9069 38.3558C25.4151 36.5535 25.1889 34.8642 24.2298 33.2308C23.3279 31.5974 21.9178 30.5839 20.1126 30.0771C18.7447 29.7242 17.3768 29.7852 16.0898 30.2606C15.7323 30.3927 15.3811 30.5568 15.0378 30.7528Z" fill="#FF903F"/>
</svg>
